<svg id="Layer_1" data-name="Layer 1" xmlns="http://www.w3.org/2000/svg" viewBox="0 0 151.39 130.53"><defs><style>.cls-1{fill:#43b682;}.cls-2,.cls-3{fill:#34495e;}.cls-3{stroke:#43b682;stroke-linecap:round;stroke-linejoin:round;stroke-width:4px;}</style></defs><title>Artboard 5</title><path class="cls-1" d="M74.46,118c-10.77,9.93-23.06,14.61-37.65,11.73A15,15,0,0,1,31.63,128c-1.33-.84-2.13-2.5-3.16-3.8a39.17,39.17,0,0,1,4.75-2.5c.86-.32,2,.1,3,.11,19.07.34,32.08-16.62,26.39-34.85-.58-1.86-1.38-6.34-1.38-6.34l4.87-4.05,2.89,1a18.16,18.16,0,0,0,12.15-.23l2-.74,5.58,4s-.58,3.14-1.23,5.2c-6.28,20,6.86,36.56,28,36.07,1.84-.05,3.71,1.66,5.56,2.56-1.4,1.38-2.57,3.52-4.24,4-14.52,4.54-27.57,1.47-39.14-8.26-.77-.64-1.47-1.36-2.21-2C75.23,118.09,75,118.1,74.46,118ZM66.07,81.6c5.39,22.48-1.63,37.45-23.42,44.61,11.57.57,21.19-3.29,28.9-11.48,2.55-2.71,4-2.93,6.62,0,7.72,8.49,17.6,12,29.27,11.31-22.29-7-29.31-21.07-23.37-44.44C77.77,85.45,71.89,84.62,66.07,81.6Z"/><path class="cls-2" d="M66.07,81.6c5.82,3,11.7,3.85,18,0C78.13,105,85.15,119.07,107.44,126c-11.67.72-21.55-2.82-29.27-11.31-2.66-2.93-4.07-2.71-6.62,0-7.71,8.19-17.33,12-28.9,11.48C64.44,119.05,71.46,104.08,66.07,81.6Z"/><path class="cls-1" d="M71.89,54.62c-9,3.84-10.17,11.2-7.76,18.87l-5.66,4.2s-5.51-6-7-7.5c-14.78-14.87-35.56-10.93-44.93,8-.82,1.64-3.2,2.5-4.85,3.73C1.08,80-.27,78,.05,76.26c2.73-15,11.51-25.1,25.52-30.82.92-.38,1.88-.66,2.81-1,.14-.06.23-.24.62-.67C25.22,29.61,26.79,16.55,36.12,5A15.09,15.09,0,0,1,40,1.15c1.36-.78,3.2-.72,4.84-1a40.1,40.1,0,0,1,0,5.37c-.12.91-1,1.7-1.48,2.58-9.17,16.73-.2,36.13,18.58,39.56,1.92.36,10.14,1,10.14,1m-7,4.63c-22.41-5.68-32.39-18.85-28.6-41.48-5.89,10-6.94,20.29-3.28,30.93,1.22,3.52.76,4.87-3.07,5.86C19,51.43,11.29,58.53,6.51,69.19,23,52.71,38.78,53,56.71,69.17,55,60.91,58.54,56.13,65.08,53.23Z"/><path class="cls-2" d="M65.08,53.23C58.5,56.17,55,61,56.71,69.17,38.78,53,23,52.71,6.51,69.19,11.29,58.53,19,51.43,30.13,48.54c3.83-1,4.29-2.34,3.07-5.86C29.54,32,30.59,21.73,36.48,11.75,32.69,34.38,42.67,47.55,65.08,53.23Z"/><path class="cls-1" d="M85.07,73.6c5.27-7.9-.22-17.44-7-19,0,0-.13-6,0-6,26.59-.28,44.26-24.25,32.51-42.48-.81-1.64,0-4.06,0-6.12,1.85.69,4.27.85,5.45,2.15,10.21,11.28,12.91,24.41,8.93,39-.26,1-.62,1.9-.91,2.85,0,.14,0,.32.16.9,13.53,5.61,22.94,14.79,26.45,29.24a15.06,15.06,0,0,1,.68,5.4c-.21,1.56-1.38,3-2.12,4.47a41.89,41.89,0,0,1-4.27-3.27c-.65-.64-.74-1.83-1.14-2.74-7.7-17.45-28.56-22.14-42.71-9.32-1.45,1.31-10,8.92-10,8.92m3.66-9.83c18.14-14.33,34.67-14.24,50.32,2.53-4.34-10.74-11.88-17.85-22.55-21.41-3.53-1.18-4.33-2.36-2.79-6,4.48-10.57,3.53-21-2-31.31,3,23.15-6.82,35.45-30.52,39.86C93.32,55.54,95,61.22,94.73,67.77Z"/><path class="cls-2" d="M94.73,67.77c.29-6.55-1.41-12.23-7.55-16.34,23.7-4.41,33.55-16.71,30.52-39.86,5.54,10.29,6.49,20.74,2,31.31-1.54,3.65-.74,4.83,2.79,6,10.67,3.56,18.21,10.67,22.55,21.41C129.4,53.53,112.87,53.44,94.73,67.77Z"/><path class="cls-2" d="M59.43,37.86c9.16-6.64,22.16-6.56,30.63-.09-3.39,4.42-6.48-.44-9.58-.27a100.55,100.55,0,0,1-10.84-.11C66.44,37.22,63.45,41.66,59.43,37.86Z"/><path class="cls-3" d="M96.83,34c-7.73-7.22-16.78-9.37-26.78-7.68-4.75.81-9.35,2.07-13.42,5.06-1.94,1.42-3.4,2.56-1.81,5.2s3.18,5.11,6.71,3.21a25.16,25.16,0,0,1,7.89-2.69c7.74-1.33,15.21-.19,21.59,4.15a12.69,12.69,0,0,0,5.82-6.61"/><path class="cls-3" d="M96.19,107.68c9.77-4,15.48-11.38,18.09-21.18,1.24-4.65,1-16.31,1-16.31s-3,.4-4.18.41c-1.64,0-5.5.56-5.5.56s-.1,7.51-.83,10.3c-2,7.59-6.14,13.91-12.73,17.92a12.63,12.63,0,0,0,3.59,8"/><path class="cls-3" d="M53.09,107.68C43.32,103.64,37.6,96.3,35,86.5c-1.24-4.65-1-16.31-1-16.31s2.95.4,4.17.41c1.64,0,5.51.56,5.51.56s.1,7.51.83,10.3c2,7.59,6.14,13.91,12.73,17.92a12.63,12.63,0,0,1-3.59,8"/></svg>